<svg width="376" height="76" viewBox="0 0 376 76" fill="none" xmlns="http://www.w3.org/2000/svg"><path fill-rule="evenodd" clip-rule="evenodd" d="M1.42424 0C0.637655 0 0 0.630118 0 1.40741V43.6296C0 44.4069 0.637654 45.037 1.42424 45.037H112.515C113.302 45.037 113.939 44.4069 113.939 43.6296V1.40741C113.939 0.630118 113.302 0 112.515 0H1.42424ZM98.9848 30.963C99.3781 30.963 99.697 30.6479 99.697 30.2593V14.7778C99.697 14.3891 99.3781 14.0741 98.9848 14.0741H14.9545C14.5613 14.0741 14.2424 14.3891 14.2424 14.7778V30.2593C14.2424 30.6479 14.5613 30.963 14.9545 30.963H98.9848Z" fill="white"/><path d="M14.2424 63.3333C14.2424 62.556 13.6048 61.9259 12.8182 61.9259H1.42424C0.637655 61.9259 0 62.556 0 63.3333V74.5926C0 75.3699 0.637656 76 1.42424 76H12.8182C13.6048 76 14.2424 75.3699 14.2424 74.5926V63.3333Z" fill="white"/><path d="M276.303 63.3333C276.303 62.556 275.665 61.9259 274.879 61.9259H263.485C262.698 61.9259 262.061 62.556 262.061 63.3333V74.5926C262.061 75.3699 262.698 76 263.485 76H274.879C275.665 76 276.303 75.3699 276.303 74.5926V63.3333Z" fill="white"/><path d="M131.03 63.3333C131.03 62.556 131.668 61.9259 132.455 61.9259H243.545C244.332 61.9259 244.97 62.556 244.97 63.3333V74.5926C244.97 75.3699 244.332 76 243.545 76H132.455C131.668 76 131.03 75.3699 131.03 74.5926V63.3333Z" fill="white"/><path fill-rule="evenodd" clip-rule="evenodd" d="M262.061 1.40741C262.061 0.630118 262.698 0 263.485 0H374.576C375.362 0 376 0.630118 376 1.40741V43.6296C376 44.4069 375.362 45.037 374.576 45.037H263.485C262.698 45.037 262.061 44.4069 262.061 43.6296V1.40741ZM361.045 14.0741C361.439 14.0741 361.758 14.3891 361.758 14.7778V30.2593C361.758 30.6479 361.439 30.963 361.045 30.963H277.015C276.622 30.963 276.303 30.6479 276.303 30.2593V14.7778C276.303 14.3891 276.622 14.0741 277.015 14.0741H361.045Z" fill="white"/><path d="M132.455 0C131.668 0 131.03 0.630118 131.03 1.40741V12.6667C131.03 13.444 131.668 14.0741 132.455 14.0741H230.015C230.408 14.0741 230.727 14.3891 230.727 14.7778V30.2593C230.727 30.6479 230.408 30.963 230.015 30.963H132.455C131.668 30.963 131.03 31.5931 131.03 32.3704V43.6296C131.03 44.4069 131.668 45.037 132.455 45.037H243.545C244.332 45.037 244.97 44.4069 244.97 43.6296V1.40741C244.97 0.630118 244.332 0 243.545 0H132.455Z" fill="white"/></svg>